PathFileType	4	(X/Y/Z)	C:\Users\Biomechanik\SynologyDrive\AlexP\Athlete_03\Athlete_3_22_07_06\sq_75_EMG\marker_experimental.trc
DataRate	CameraRate	NumFrames	NumMarkers	Units	OrigDataRate	OrigDataStartFrame	OrigNumFrames
200.000000	200.000000	4	58	mm	200.000000	1146	1310
Frame#	Time	BL			BR			Athlete_3_RUA2_Opt:GLAB			Athlete_3_RUA2_Opt:RFHD			Athlete_3_RUA2_Opt:LFHD			Athlete_3_RUA2_Opt:C7			Athlete_3_RUA2_Opt:T6			Athlete_3_RUA2_Opt:SPINMOL			Athlete_3_RUA2_Opt:SPINM2			Athlete_3_RUA2_Opt:SPINM3			Athlete_3_RUA2_Opt:T12			Athlete_3_RUA2_Opt:BELTOL			Athlete_3_RUA2_Opt:BELT2			Athlete_3_RUA2_Opt:BELT3			Athlete_3_RUA2_Opt:SACROL			Athlete_3_RUA2_Opt:SACR2			Athlete_3_RUA2_Opt:SACR3			Athlete_3_RUA2_Opt:LTHOL			Athlete_3_RUA2_Opt:LTH2			Athlete_3_RUA2_Opt:LTH3			Athlete_3_RUA2_Opt:LSHAOL			Athlete_3_RUA2_Opt:LSHA2			Athlete_3_RUA2_Opt:LSHA3			Athlete_3_RUA2_Opt:LHEE			Athlete_3_RUA2_Opt:LTOE			Athlete_3_RUA2_Opt:LM5			Athlete_3_RUA2_Opt:RTHOL			Athlete_3_RUA2_Opt:RTH2			Athlete_3_RUA2_Opt:RTH3			Athlete_3_RUA2_Opt:RSHAOL			Athlete_3_RUA2_Opt:RSHA2			Athlete_3_RUA2_Opt:RSHA3			Athlete_3_RUA2_Opt:RHEE			Athlete_3_RUA2_Opt:RTOE			Athlete_3_RUA2_Opt:RM5			Athlete_3_RUA2_Opt:STRN			Athlete_3_RUA2_Opt:XIPH			Athlete_3_RUA2_Opt:LACR			Athlete_3_RUA2_Opt:LUAOL			Athlete_3_RUA2_Opt:LUA2			Athlete_3_RUA2_Opt:LUA3			Athlete_3_RUA2_Opt:LLAOL			Athlete_3_RUA2_Opt:LLA2			Athlete_3_RUA2_Opt:LLA3			Athlete_3_RUA2_Opt:LWRU			Athlete_3_RUA2_Opt:RACR			Athlete_3_RUA2_Opt:RUAOL			Athlete_3_RUA2_Opt:RUA3			Athlete_3_RUA2_Opt:RLAOL			Athlete_3_RUA2_Opt:RLA2			Athlete_3_RUA2_Opt:RLA3			Athlete_3_RUA2_Opt:RWRU			USERMO0			USERMO1			USERMO2			USERMO3			USERMO4			USERMO5			
		X1	Y1	Z1	X2	Y2	Z2	X3	Y3	Z3	X4	Y4	Z4	X5	Y5	Z5	X6	Y6	Z6	X7	Y7	Z7	X8	Y8	Z8	X9	Y9	Z9	X10	Y10	Z10	X11	Y11	Z11	X12	Y12	Z12	X13	Y13	Z13	X14	Y14	Z14	X15	Y15	Z15	X16	Y16	Z16	X17	Y17	Z17	X18	Y18	Z18	X19	Y19	Z19	X20	Y20	Z20	X21	Y21	Z21	X22	Y22	Z22	X23	Y23	Z23	X24	Y24	Z24	X25	Y25	Z25	X26	Y26	Z26	X27	Y27	Z27	X28	Y28	Z28	X29	Y29	Z29	X30	Y30	Z30	X31	Y31	Z31	X32	Y32	Z32	X33	Y33	Z33	X34	Y34	Z34	X35	Y35	Z35	X36	Y36	Z36	X37	Y37	Z37	X38	Y38	Z38	X39	Y39	Z39	X40	Y40	Z40	X41	Y41	Z41	X42	Y42	Z42	X43	Y43	Z43	X44	Y44	Z44	X45	Y45	Z45	X46	Y46	Z46	X47	Y47	Z47	X48	Y48	Z48	X49	Y49	Z49	X50	Y50	Z50	X51	Y51	Z51	X52	Y52	Z52	X53	Y53	Z53	X54	Y54	Z54	X55	Y55	Z55	X56	Y56	Z56	X57	Y57	Z57	X58	Y58	Z58	

1147	5.73	98.36372375488281	1277.721923828125	-2240.664306640625	249.8298645019531	1262.993774414062	-23.10437965393059	504.9207763671875	1452.588989257812	-1136.393676757812	443.1407470703125	1465.198486328125	-1060.04638671875	443.5863037109375	1465.631591796875	-1216.901489257812	263.4255676269531	1367.272705078125	-1128.771118164062	119.6637954711914	1228.043579101562	-1131.189819335938	98.755859375	1201.069946289062	-1135.522338867188	69.07118225097656	1147.057373046875	-1084.4658203125	74.2587890625	1144.201904296875	-1134.129028320312	61.52158737182617	1095.117431640625	-1133.195678710938	25.98828887939453	1070.105834960938	-1129.911254882812	9.262866020202637	1012.21923828125	-1077.587036132812	2.20943021774292	1012.674743652344	-1127.244018554688	-16.20337295532227	938.9817504882814	-1154.778564453125	-4.230503559112549	946.9548950195314	-1105.799194335938	-43.31443405151367	894.0622558593751	-1114.411743164062	89.14747619628906	722.5774536132814	-1391.394165039062	54.22999572753906	650.7312622070314	-1385.245361328125	98.44100952148438	663.0372924804689	-1406.560424804688	88.31123352050781	326.3266906738282	-1501.668701171875	59.13315963745117	252.8601989746095	-1504.572021484375	103.4493560791016	268.697723388672	-1520.496948242188	71.401611328125	38.44573593139658	-1482.912109375	266.3163757324219	50.17615890502939	-1553.853271484375	194.0348052978516	22.06164741516123	-1639.367553710938	86.79804992675781	691.9302978515625	-876.8933715820312	133.1110229492188	637.235595703125	-841.85595703125	87.23966217041016	631.5386962890625	-861.5823974609375	72.94967651367188	319.8678894042969	-769.0836791992188	116.4985656738281	261.8607788085938	-736.9791870117188	72.49166107177734	258.8877258300782	-760.8981323242188	65.12235260009766	37.75996398925786	-790.5370483398438	258.4400634765625	46.30281829833989	-710.6461181640625	189.0101776123047	36.30293273925785	-626.462890625	356.9949340820312	1223.566650390625	-1148.036743164062	335.9738159179688	1067.70849609375	-1145.024291992188	228.5095672607422	1304.864135742188	-1327.52685546875	95.44404602050781	1215.30517578125	-1344.926635742188	64.13050842285156	1171.003173828125	-1307.265747070312	62.68631362915039	1171.163818359375	-1357.929931640625	42.79555511474609	1140.684814453125	-1434.873168945312	84.69698333740234	1160.322265625	-1480.89306640625	81.68724060058594	1191.202026367188	-1441.259033203125	127.4975738525391	1237.918579101562	-1492.077270507812	259.8013916015625	1303.382690429688	-949.2603149414061	139.9783630371094	1194.469848632812	-904.2384643554686	84.87542724609375	1166.463500976562	-901.9177856445311	96.78019714355469	1156.80712890625	-822.7991943359374	140.7786865234375	1203.78759765625	-830.6179199218749	136.6114349365234	1186.01513671875	-782.7570800781249	169.1995697021484	1227.477416992188	-763.5079956054686	0.1027569994330406	0.02643180079758168	-0.1362379938364029	0.1095990017056465	0.1674910038709641	-0.1131889969110489	0.0438729003071785	0.06106650084257126	-0.05288910120725631	0.1143049970269203	0.2398100048303605	-0.7786099910736084	0.3829790055751801	2.848469972610474	-0.3183490037918089	2.928790092468262	0	0	
1148	5.735	98.62282562255859	1277.119506835938	-2240.690673828125	249.5755920410156	1263.037719726562	-23.1265277862548	504.9329223632812	1452.851806640625	-1136.296875	443.10546875	1465.442260742188	-1059.996215820312	443.6533508300781	1465.849731445312	-1216.836181640625	263.4929504394531	1367.433959960938	-1128.775268554688	119.686653137207	1228.382446289062	-1131.25390625	98.75845336914062	1201.326538085938	-1135.555541992188	69.08655548095703	1147.314331054688	-1084.492309570312	74.30705261230469	1144.440551757812	-1134.151611328125	61.58802032470703	1095.160888671875	-1133.17919921875	26.16726875305176	1069.918579101562	-1129.846435546875	9.654209136962891	1011.968688964844	-1077.523193359375	2.594915151596069	1012.402404785156	-1127.17919921875	-15.61311912536621	938.7910766601564	-1154.676513671875	-3.585309028625488	946.7684326171876	-1105.704711914062	-42.62754440307617	893.8387451171876	-1114.2763671875	89.60049438476562	722.6082763671876	-1391.270263671875	54.51494979858398	650.8532104492189	-1385.065673828125	98.74598693847656	663.0358886718751	-1406.406005859375	88.09751129150391	326.2898559570314	-1501.469482421875	58.96560287475586	252.8056030273438	-1504.403564453125	103.2613296508789	268.6814575195314	-1520.344848632812	71.38921356201172	38.43311691284189	-1482.92724609375	266.3095397949219	50.18228530883798	-1553.877563476562	194.0272216796875	22.03591156005869	-1639.388549804688	87.49114990234375	692.0436401367188	-876.974853515625	133.5972442626953	637.162841796875	-841.9705200195312	87.71047210693359	631.6414794921875	-861.72900390625	72.91049957275391	319.8321533203126	-769.26318359375	116.4692459106445	261.8569335937501	-737.116943359375	72.45853424072266	258.8497314453126	-761.0353393554688	65.10984039306641	37.74238586425786	-790.5310668945312	258.4376525878906	46.29813003540043	-710.6421508789062	189.0132141113281	36.29500961303714	-626.4584350585938	357.0725402832031	1223.678466796875	-1147.99267578125	335.9346008300781	1067.883178710938	-1144.962768554688	228.6304473876953	1305.004638671875	-1327.557983398438	95.58220672607422	1215.40576171875	-1344.994384765625	64.24523162841797	1171.137939453125	-1307.3017578125	62.84075546264648	1171.270874023438	-1357.958129882812	42.96965026855469	1140.702026367188	-1434.84326171875	84.86368560791016	1160.337890625	-1480.878540039062	81.85501098632812	1191.225341796875	-1441.256958007812	127.6275177001953	1237.9248046875	-1492.086547851562	259.7953491210938	1303.521240234375	-949.2554321289061	139.8563690185547	1194.765502929688	-904.2808837890624	84.77011871337891	1166.843872070312	-901.9778442382811	96.61978149414062	1157.148559570312	-822.8603515624999	140.6685180664062	1204.079467773438	-830.6879272460936	136.4705352783203	1186.309936523438	-782.8123168945311	169.0582122802734	1227.716186523438	-763.5564575195311	0.1029710024595261	0.02681020088493825	-0.1385090053081512	0.102912999689579	0.1724919974803925	-0.1115130037069321	0.04335609823465347	0.06448289752006531	-0.05399319902062415	0.1224389970302582	0.2438140064477921	-0.77817302942276	0.3800370097160339	2.846240043640137	-0.3217670023441313	2.929169893264771	0	0	
1149	5.74	98.88057708740234	1276.448364257813	-2240.713623046875	249.3238983154297	1263.023193359375	-23.14868354797355	504.9505004882812	1453.0908203125	-1136.188110351562	443.0741271972656	1465.661010742188	-1059.934448242188	443.7250671386719	1466.0380859375	-1216.760131835938	263.5738220214844	1367.560180664062	-1128.770141601562	119.7215423583984	1228.701904296875	-1131.312744140625	98.77182006835938	1201.568969726562	-1135.583740234375	69.10498809814453	1147.557983398438	-1084.516845703125	74.36123657226562	1144.666381835938	-1134.171997070312	61.6506462097168	1095.191772460938	-1133.159912109375	26.337890625	1069.7216796875	-1129.781494140625	10.03060817718506	1011.710815429688	-1077.459838867188	2.967127799987793	1012.123413085938	-1127.115234375	-15.04514598846436	938.5952148437501	-1154.581298828125	-2.96206521987915	946.5764770507814	-1105.615112304688	-41.95829010009766	893.6073608398439	-1114.150390625	90.06623077392578	722.6340332031251	-1391.155395507812	54.81907653808594	650.9667358398439	-1384.90625	99.07276916503906	663.0314941406251	-1406.26171875	87.92619323730469	326.2573852539064	-1501.2890625	58.83016586303711	252.7598876953126	-1504.2548828125	103.1099700927734	268.666961669922	-1520.206909179688	71.37931823730469	38.42309951782236	-1482.9404296875	266.3042602539062	50.18720626831064	-1553.901123046875	194.0198822021484	22.0106201171876	-1639.409423828125	88.15699005126953	692.145751953125	-877.052978515625	134.0615692138672	637.089599609375	-842.0737915039062	88.16548919677734	631.7330932617188	-861.873046875	72.87904357910156	319.7988891601563	-769.4306030273438	116.4483108520508	261.8523864746094	-737.2490234375	72.43148040771484	258.8133239746094	-761.16357421875	65.09827423095703	37.72652435302739	-790.5260620117188	258.4363708496094	46.29249191284184	-710.6388549804688	189.0162506103516	36.28816986083988	-626.4541015625	357.1609802246094	1223.754638671875	-1147.939697265625	335.8971557617188	1068.025146484375	-1144.89453125	228.7602233886719	1305.105224609375	-1327.5830078125	95.72939300537109	1215.465209960938	-1345.0625	64.36898040771484	1171.232543945312	-1307.337646484375	63.00834274291992	1171.332885742188	-1357.9853515625	43.16016387939453	1140.673461914062	-1434.815551757812	85.04605102539062	1160.306274414062	-1480.862182617188	82.03900909423828	1191.201293945312	-1441.2578125	127.7666244506836	1237.8857421875	-1492.095092773438	259.7936401367188	1303.624389648438	-949.2466430664061	139.7396087646484	1195.024169921875	-904.3187866210936	84.66622924804688	1167.1884765625	-902.0346069335936	96.46414184570312	1157.450439453125	-822.9182739257811	140.5642395019531	1204.330444335938	-830.7553710937499	136.3363494873047	1186.562377929688	-782.8645019531249	168.9236602783203	1227.9111328125	-763.6016235351561	0.1028250008821487	0.0271602999418974	-0.1403460055589676	0.09708590060472488	0.1773920059204102	-0.1094169989228248	0.0427946001291275	0.06797450035810471	-0.05493349954485893	0.130634993314743	0.2467810064554215	-0.776960015296936	0.3774220049381256	2.843980073928833	-0.3255569934844969	2.929480075836182	0	0	
1150	5.745	99.13704681396484	1275.7138671875	-2240.73388671875	249.0747680664062	1262.955444335938	-23.17044258117668	504.973876953125	1453.308715820312	-1136.067993164062	443.0473022460938	1465.85595703125	-1059.861083984375	443.80078125	1466.19921875	-1216.673583984375	263.6685791015625	1367.654052734375	-1128.754638671875	119.7680969238281	1229.0029296875	-1131.365478515625	98.79560852050781	1201.797607421875	-1135.60595703125	69.12677764892578	1147.788940429688	-1084.538330078125	74.42125701904297	1144.880249023438	-1134.188598632812	61.7100715637207	1095.210571289062	-1133.13671875	26.50004768371582	1069.516723632812	-1129.715454101562	10.39185905456543	1011.446594238281	-1077.396484375	3.325504541397095	1011.839172363281	-1127.05126953125	-14.49923706054688	938.3942871093751	-1154.49267578125	-2.36186671257019	946.3793334960939	-1105.530517578125	-41.30730438232422	893.3681640625001	-1114.034057617188	90.54426574707031	722.6542358398439	-1391.049194335938	55.14306259155273	651.0707397460939	-1384.765502929688	99.42160034179688	663.0235595703126	-1406.126342773438	87.79971313476562	326.228973388672	-1501.126342773438	58.72930908203125	252.7227020263673	-1504.125366210938	102.9978332519531	268.6539001464845	-1520.082397460938	71.37278747558594	38.41574096679697	-1482.950805664062	266.3008422851562	50.19069671630869	-1553.923583984375	194.0128936767578	21.98616790771494	-1639.429809570312	88.79921722412109	692.2371826171875	-877.1292114257812	134.5084838867188	637.0159301757812	-842.1688842773438	88.60794067382812	631.8142700195312	-862.0150146484375	72.85763549804688	319.7688903808594	-769.5850830078125	116.4381942749023	261.8471679687501	-737.3756103515625	72.41218566894531	258.7800903320313	-761.2809448242188	65.08809661865234	37.71256637573247	-790.5223999023438	258.4364318847656	46.28578567504887	-710.63623046875	189.0193328857422	36.28266143798832	-626.4498901367188	357.2594909667969	1223.796264648438	-1147.878173828125	335.8601684570312	1068.13525390625	-1144.81884765625	228.8982391357422	1305.167358398438	-1327.6015625	95.88516235351562	1215.48583984375	-1345.12939453125	64.50077819824219	1171.2890625	-1307.372802734375	63.18769454956055	1171.352172851562	-1358.011352539062	43.3658332824707	1140.602661132812	-1434.790161132812	85.24261474609375	1160.23046875	-1480.843505859375	82.23760986328125	1191.133178710938	-1441.260498046875	127.9137496948242	1237.804809570312	-1492.1025390625	259.796142578125	1303.695068359375	-949.2342529296874	139.6294097900391	1195.2470703125	-904.3510131835936	84.56306457519531	1167.498291015625	-902.0867309570311	96.31499481201172	1157.713989257812	-822.9721679687499	140.4670257568359	1204.5419921875	-830.8187866210936	136.2101287841797	1186.774536132812	-782.9128417968749	168.7967071533203	1228.064575195312	-763.6431274414061	0.1022979989647865	0.02749120071530343	-0.1418340057134628	0.09197770059108734	0.1818249970674515	-0.1069940030574798	0.04224099963903427	0.07136060297489166	-0.05567749962210655	0.1386259943246841	0.2487560063600541	-0.7749289870262146	0.3751370012760162	2.841749906539917	-0.3295589983463286	2.929739952087402	0	0	
